# xmcd
#
# Track frame offsets: 
#        150
#        13453
#        25623
#        36343
#        50400
#        63293
#        74255
#        85083
#        97220
#        108058
#        118338
#        132073
#        142110
#        152218
#        163193
#        175860
#        186595
#        199615
#        212680
#        223550
#
# Disc length: 3145 seconds
#
# Revision: 2
# Processed by: cddbd v1.4PL0 Copyright (c) Steve Scherf et al.
# Submitted via: ExactAudioCopy v0.90b4
#
DISCID=2a0c4714
DTITLE=George Jones and Tammy Wynette - The President and The First Lady
DYEAR=1900
DGENRE=Country
TTITLE0=We're Gonna Hold On
TTITLE1=Two Story House
TTITLE2=Take Me
TTITLE3=The Ceremony
TTITLE4=Old Fashioned Singing
TTITLE5=(We're Not) The Jet Set
TTITLE6=We Loved It Away
TTITLE7=God's Gonna Get 'Cha (For That)
TTITLE8=Someone I Used To Know
TTITLE9=Livin' On Easy Street
TTITLE10=Golden Ring
TTITLE11=After Closing Time
TTITLE12=Something To Brag About
TTITLE13=We'll Talk About It Later
TTITLE14=Roll In My Sweet Baby's Arms
TTITLE15=Near You
TTITLE16=Southern California
TTITLE17=Let's Build A World Together
TTITLE18=After The Fire Is Gone
TTITLE19=If We Don't Make It
EXTD=
EXTT0=
EXTT1=
EXTT2=
EXTT3=
EXTT4=
EXTT5=
EXTT6=
EXTT7=
EXTT8=
EXTT9=
EXTT10=
EXTT11=
EXTT12=
EXTT13=
EXTT14=
EXTT15=
EXTT16=
EXTT17=
EXTT18=
EXTT19=
PLAYORDER=
